<?xml version="1.0" encoding="utf-8"?>
<!-- Generator: Adobe Illustrator 23.0.5, SVG Export Plug-In . SVG Version: 6.00 Build 0)  -->
<svg version="1.1" id="Layer_1" xmlns="http://www.w3.org/2000/svg" xmlns:xlink="http://www.w3.org/1999/xlink" x="0px" y="0px"
	 viewBox="0 0 1728 1296" style="enable-background:new 0 0 1728 1296;" xml:space="preserve">
<style type="text/css">
	.st0{fill:#F83225;}
	.st1{fill:#FC1E26;}
	.st2{fill:#F63C25;}
	.st3{fill:#F93026;}
	.st4{fill:#F44C24;}
	.st5{fill:#F35023;}
	.st6{fill:#F73E24;}
	.st7{fill:#FB2525;}
	.st8{fill:#F54625;}
	.st9{fill:#FA2825;}
	.st10{fill:#F54425;}
	.st11{fill:#FC1C27;}
	.st12{fill:#F25324;}
	.st13{fill:#A3E103;}
	.st14{fill:#84E202;}
	.st15{fill:#6AE202;}
	.st16{fill:#3FE402;}
	.st17{fill:#55E304;}
	.st18{fill:#15E505;}
	.st19{fill:#2DE404;}
	.st20{fill:#D7222B;}
	.st21{fill:#FEFEFE;}
</style>
<g>
	<path class="st0" d="M603.9,654.3c41.1,2.4,81.5,10,122.2,15.5c22.9,3.1,46,4,68.3,10.8c25.4,5.2,51.2,8.7,76.9,12.1
		c14,1.9,27.7,4.8,40.4,11.4c-3.2,12.2-15.9,8-22.4,15.5c-3.7,9.7,1.4,18.7,7.1,26.2c10.5,14.2,13,29.8,13,46.8
		c-0.2,111.4-0.6,223,0.3,334.4c0.2,23.7-10.8,43.5-16.9,65.4c6.4,9.7,24.6,14.5,14.3,30.7c-9.8,15.5-23.5,21.2-42.3,19.3
		c-45.4-4.8-90.1-13.5-135.7-17.1c-56.2-3.5-111.4-13.8-167.1-21.4c-30.3-4-61.2-4.8-90.5-15c3.4-4.8,8.9-6.6,14-5.6
		c28.8,5.5,58.6,0.5,87.3,8.9c25.3,7.6,52,8,78.1,11.3c4.5,0.5,9-0.2,13.8-7.6c-20.4-13.8-13.7-35.1-13-55.7
		c1.3-53.4,0.5-106.9,0.5-160.3c0-18-1.3-36.4,17.4-52.3c-13.7,3.1-20.3,14.2-34.3,6.8c1.8-20.8,5.5-42.3,14.8-62.9
		c6.4-14,11.1-28.5-2.9-43.6c2.6,23.3-4.5,43.3-13.8,61.8c-7.7,15.3-20,28.8-40.9,25c-7.7-9.7,1.6-14.8,6-20.6
		c40.7-52.3,35.3-101.9-15.6-143.1c-5-4-11.9-7.1-11.3-15.5c20.4-4.7,40.4,6.6,53.6,30.1C639,790,639,790,661.7,806.8
		c-12.1-19.5-8-35.4,6.1-53.9c-9.3,6-13.8,15.9-22.2,10c-7.6-5.3-5-13.4-2.4-20.6c2.3-6.4,4.2-12.7,4.8-19.6
		c3.4-39.3,2.7-40.2-32.4-57.3C610.6,663.2,602.9,663,603.9,654.3z"/>
	<path class="st1" d="M430,1175.6c-58.3-22.4-100.9-62.5-130.9-116.6c-10.1-18.4-19.8-37-21.9-58.6c-6.6-30.1-7.4-60.5-6-91.1
		c0.8-15.6-5.8-20.8-20.4-22.4c-26.6-3.1-53.6-4.7-78.7-15c-20.4-13.7-26.6-33.2-23.2-56.7c3.7-25.3,6.8-50.7,10.5-76
		c5.8-38,32.2-57.5,70.2-52.3c20.8,2.7,41.5,5.8,61.8,8.7c8-6.9,4.8-16.6,9.2-23.5c5.2-17.2,6.9-35.1,7.4-55.7
		c58.6,7.7,116.2,15,172.7,23c5.3,7.9,2.9,14.5,0.6,20.8c-6,16.6-6.9,30.9,8,44.9c10.9,10.1,6.9,25.8-7.1,34.1
		c-8.9,5.3-15.5,11.4-19.3,20.8c-4.3,15.1-15.5,27-20.1,42.5c-6.1,20.3-1.1,40.1-0.6,60c-0.2,6.9-2.4,13.4-4,19.8
		c-2.3,9.2-0.6,15.1,9.8,19c30.1,11.1,43.8,50.1,27.4,76.3c-5.6,9-6.3,18.5-5.8,28.2c2.3,45.7-3.7,91.4,0.2,137.5
		C472.7,1178,464.5,1182.8,430,1175.6z"/>
	<path class="st2" d="M729.1,1225.3c23.5-2.7,46,2.9,69.1,5.8c25.1,3.2,50.2,8.2,75.8,7.2c16.1-0.6,31.2-16.3,30.4-31.7
		c-6.4-5.6-14.5,4-22.9-3.5c3.4-10.5,5.2-23.3,11.6-33.2c8-12.2,9.8-24.6,9.7-38.3c-0.2-114.5-0.2-228.9,0-343.4
		c0-14.3-0.5-26.7-13-38.5c-8.5-8-9.8-24-14.5-36.5c10.6-8.7,22.7-1.8,34.3-6.6c-34.5-13.2-69.7-14.3-104-20.6
		c-4.3-0.8-9.2-0.2-11.3-5.5c56.2,3.7,111.6,14.3,167.3,21.6c33.3,4.3,67,7.1,99.8,15c37.7,8,37.7,8,37.7,49.9
		c0,30.9,0,30.9-8.2,44.9c13-2.6,17.4,2.7,17.1,15.8c-0.5,22.9,0.5,45.2-7.4,67.9c-5.8,16.7-1.3,35.6-0.2,53.6
		c-6.1,14.2-10.3,28.3-1.1,43c2.4,3.9,2.7,8.7,2.4,13.2c-6.1,74.4,0.2,148.7-1.9,223.1c-1.1,39.1-4.5,43.1-43.1,39.3
		c-43-4.3-85.6-10.8-128.6-15.3c-44.8-2.1-88.7-10.9-133.1-16.6C773.1,1233.2,750.5,1232.2,729.1,1225.3z"/>
	<path class="st3" d="M874.5,559.5c-54.7-12.1-108.2-29.3-162.1-44.3c-27.2-7.6-55.2-13-81.5-24c15.9-11.6,32.2-2.9,47.7,0.3
		c35.9,7.4,48-2.3,46.5-38c-2.7-67.8-0.8-135.7-1-203.5c0-22.7-1.6-45.1-7.2-67.1c-2.3-8.7-5.8-17.9,5.3-23.7
		c57.3,12.7,113.2,30.9,169.7,46.4c14.3,4,29.5,6,42.8,13.4c14.3,11.9,26.6,26.7,44.8,29.5c1,9.5-2.9,13.4-7.1,16.6
		c-11.1,8.7-12.1,20.3-10,32.7c12.2,75,3.2,150.5,5.3,225.9c0.5,19.6-18.8,29.5-25.9,45.7c-2.6,5.8-12.4,2.6-19.2,1.1
		C906.3,567.2,890.9,561,874.5,559.5z"/>
	<path class="st4" d="M1415.2,1113.1c-27.5,75.2-79.2,125.9-154.2,153.3c-11.8-5.5-16.6-15.6-15.6-27.4c1-12.2,14.8-7.4,23.5-14.6
		c-29.8-62.3-23.2-126.5-8.5-191.7c-9.7,0.3-24.8-0.2-24.5-21.4c2.1-8,9.2-11.6,15-16.1c55.4-43.5,48.3-124.4-13.7-158.2
		c-6.8-3.7-16.7-4-18.4-14.5c7.7-8.9,18.7-3.1,27.7-6.4c11.8-4.5,24.3-8.4,14.5-25.3c-3.9-6.6-4.8-14.2,1.8-18.2
		c9.7-6.1,4.5-19,13.2-24.8c56.8,12.2,116.1,12.1,171.6,28.5c0,14.5-11.9,14.8-15.8,24c1.9,13,12.4,30.7-15,36.4
		c8.9,6.1,20.1,9,18,21.1c-1.4,8.2-6.6,12.7-15.1,12.6c7.9,19.6,15,39,14.6,60.5c-0.5,28.5-0.2,57.1-0.2,85.6
		c0,22.1-3.7,43.1-15.1,62.5C1412.5,1089.3,1420.5,1101.8,1415.2,1113.1z"/>
	<path class="st5" d="M1242.5,305.3c56.7,13,113,26.7,160.5,63.1c85,65.2,123,176.9,95.1,281.1c-6.8,25.4-14.2,50.7-20.9,74.4
		c-6.4,5.5-11.8,3.1-16.6,1.8c-68.3-19-136.5-38.3-204.6-57.5c-3.5-1-6.8-3.1-10.1-4.5c18.2-20.8,35.7,1.4,55.5,1.4
		c-4.3-21.9-29.9-23-36.5-38.6c0.2-6.3,2.9-10.3,6.1-10.6c26.4-3.1,22.5-19.6,21.1-39.1c-3.4-46.5-1-93.2-1.3-139.9
		c-0.2-18,1.6-36.2-8.9-52.6c-2.9-4.7-2.6-10.1,0.6-14.5c8-6.9,16.4,1.6,25.8-1.8c1.3-8.5-2.6-16.3-4.5-24.3
		c-12.2-4.3-20.6,6.8-31.1,5.6c-18.7-1.9-9.3-13.8-7.6-21.2C1260.3,316.3,1238.1,325,1242.5,305.3z"/>
	<path class="st6" d="M874.5,559.5c13.8-2.9,26.9,2.4,39.8,5.8c9,2.3,17.4,4,26.4,1c8.2-8.2-6.4-31.9,21.1-26.9
		c0-18.4,0-35.6,0-52.6c0-47.5,0-95.1,0-142.6c0-15,0.5-29.5-6.3-44.1c-3.9-8.2-2.3-20.1,0-29.8c2.4-10.5,16.7-8.4,22.9-15.5
		c-2.6-6.3-5.6-7.2-11.1-6.4c-17.4,2.4-21.9-1.3-24.5-18.8c-0.8-5.3-6.9-5.6-7.9-10.3c49.1,10.8,97.1,25.3,145,40.6
		c3.4,3.2,7.7,4.7,12.1,6c36.4,10,48.5,25,48.6,63.6c0.5,72.4,0.2,144.9,0.2,217.3c0,12.9,0.5,25.4,5,37.8c9,24,2.4,35.3-22.5,39.6
		c-7.4,1.3-15,1.9-22.4-0.8c-54.1-11.6-106.6-29-160-43.5C918.4,573.3,895.7,568.8,874.5,559.5z"/>
	<path class="st7" d="M722.2,159.3c-1.3,4.8-6,8.7-2.6,14.6c9.5,16.7,10.8,35.4,10.9,53.9c0.5,69.2,0.2,138.6,0.2,207.8
		c0,19,7.1,38.3-3.1,57.6c-0.3,0.2-1.4,1-2.7,1.8c-25.1,15-49.3,1.1-73.9-2.6c-6.6-1-13.5-0.8-20.1-1.1
		c-53.6-13-106.7-27.4-159-45.1c10.6-10.3,22.9-4.2,34.3-2.7c33.3,4.2,41.2-2.3,41.4-35.1c0.2-69.4,0.2-138.8,0-208.1
		c0-8.2,1.4-16.7-4-24.5c-14.6-4.5-32,36.9-44.8-2.4c60.2-35.9,124.8-39.3,191.4-24.5C701.1,151.3,711.6,155.8,722.2,159.3z"/>
	<path class="st8" d="M1100.7,622.9c15.3,2.9,26.2-9.2,40.1-11.9c7.6-1.4,8.5-10.3,3.1-16.6c-10.6-11.9-10.1-25.9-10.1-40.4
		c0.2-82.7,0-165.6,0-246.1c-3.5-8.9-12.1-5.3-15.6-9.7c-1.6-6.9,7.9-8,4.8-17.1c-6.4-5.6-15.8-11.4-27.4-11.9
		c-7.4-0.3-13.4-1.8-15.9-9.7c54.9,13,109.3,28.2,162.9,45.7c0.2,8.5,6.1,8.5,12.6,9.3c10.6,1.1,20.9,3.5,23.3,15.3
		c-1.9,10-11.1,4.8-16.3,11.4c19.2,12.2,33.3-17.7,50.9-6c-1.6,21.7-1.6,21.7,9.5,33.5c-11.4,15.9-24.3,6-35.6,1.3
		c-4,3.5-4.3,7.7-2.6,9.3c15.3,13.4,12.4,31.1,12.4,48.1c0,45.2,0.6,90.6-0.3,135.9c-0.5,17.2,9.8,33.6,2.9,51.7
		c-8.9,7.4-22.5-2.1-32,8.2c13.2,17.5,48.9,18.5,40.6,53.8c-21.7-4.7-38.6-24.8-62-13.4c-9.5-6-19.6-8-31.2-9.2
		c-27.7-2.4-53.4-13.8-80.2-20.6C1123,631,1111.1,629.2,1100.7,622.9z"/>
	<path class="st9" d="M430,1175.6c5.3-0.2,10.5-0.5,15.8-0.6c13.4-0.3,20-3.9,18.2-20.3c-5.6-54.3,1-108.8-0.6-163.1
		c-0.2-5.2-1.1-10.8,2.7-15.3c6.3-7.6,22.9-10.3,10.8-25.9c-6-7.7-0.6-19.6-11.1-27.5c-7.6-5.6-5.5-24.1-24.1-14
		c-6.3,3.4-15.5-14-11.8-24.3c2.9-7.7,6.9-15,6.9-23.5c9.8,1.4,12.2,10.3,16.7,16.9c25.8,37.7,64.6,51.2,108.8,38
		c8.4-2.6,16.3-8.9,25.9-4.7c20.8,2.7,32.4-10.6,41.5-25.4c7.7-12.6,5.5-28.7,13.5-42.2c4.8-8.2-9.5-16.4-6.6-27
		c22.1,6.6,32.5,20.6,25.1,39.9c-9.3,25-17.4,50.1-21.9,77.8c15.5,2.1,18.8-19.2,34.1-20.9c2.9,9.3,5.8,19-4.2,24.1
		c-12.2,6.3-11.8,15.9-11.6,26.7c0.2,57.3,0,114.6,0,171.9c0,6.8,0.5,13.7-0.6,20.3c-4,24.3-4.3,24.3,18.4,36.1
		c-1.4,17.1-13.7,21.2-26.9,18c-29.6-7.2-61.5-2.6-89.8-16.7c-1.3-0.6-2.9-0.8-4.3-0.6c-27.8,2.7-55.2-5-83.1-4.2
		C456.6,1188.1,442.7,1183.6,430,1175.6z"/>
	<path class="st10" d="M1236.4,1011.2c4.2,8.4,8.2,16.9,20.6,17.7c6.6-0.6,9.3-10.5,18.7-11.6c5,11.1-0.8,19-8.2,24.6
		c-9.8,7.2-11.6,16.6-11.6,27.7c0.2,22.5,0,45.2,0.2,67.8c0.2,14.2,0.6,28.5-5.3,43.3c23.8,10.8,19.8,34.6,27.4,54.4
		c-9.8,4-19.5-5.8-29.5,1.6c0.2,10.9,8.5,19.3,12.2,29.5c-40.1,19-82.7,21.2-125.6,16.4c-66.5-7.7-132.6-17.7-198.8-26.9
		c-2.9-0.3-5.5-2.1-8.2-3.2c30.1-2.6,60,2.7,89.3,6.1c18.5,2.1,37.5,6.4,56.7,7.1c13.4,0.5,19-5.2,18.8-18.7
		c-0.3-63.3,0.6-126.4-0.6-189.6c-0.3-16.9-6.8-33.5,4-49.7c2.7-4.2,0.5-9.8-2.4-14.8c-13.7-22.2-13.4-22.2,1.6-42.3
		c1.3-1.6,1.1-4.2,1.8-6.4c1.1-0.2,2.3-0.5,3.4-0.6c4.3,2.1,6.4,6.1,8.4,10.1c21.4,44.6,57,62.9,105.8,56.5
		C1222,1009.1,1229.4,1005.9,1236.4,1011.2z"/>
	<path class="st11" d="M498.7,173.5c6.6,2.4,6.3,12.6,16.4,12.9c8.5-8.4,17.9-18,28.7-25c10.8,2.4,10.3,10.5,10.3,18
		c0,82.3-0.2,164.5,0.2,246.8c0,15.6-6.1,23.2-22.4,24.6c-12.2,1.1-24,1-35.3-2.6c-8.4-2.6-16.3-2.4-24.5-2.1
		c-42-7.9-82.3-22.7-124.8-33.2c18-92.7,47.7-176.8,131.7-229.7C485.2,179.6,490.9,174.3,498.7,173.5z"/>
	<path class="st12" d="M1415.2,1113.1c-0.8-6-0.8-12.1-2.4-17.7c-1.4-4.8-7.4-7.7-6.3-15.1c1.9-7.2,12.2-6.6,17.5-15.6
		c4.5-61.7,11.8-125.7-5.8-188.3c-3.7-7.1-12.9-1.9-15.5-8.7c0.3-7.7,3.4-8,21.4-1.9c10.5-16.7,10.1-17.5-6.9-21.1
		c-2.3-0.5-4.7,0-6.8-0.6c-4.5-1.3-8.7-4.2-7.9-9.3c0.8-4.8,4.8-8.5,9.8-6.6c7.9,3.1,15.1,4.5,19.2-4.7c3.9-9-4.8-13.2-9-19
		c-0.8-1.1-1.4-2.6-2.1-3.9c1-14.8,16.4-12.2,26.7-20c-12.4-5.6-22.9-8.2-33.8-9.2c-31.2-2.7-61.5-14-93-12.6
		c-16.6,0.8-29.9-10.1-46-9.2c-8.7,4.7-17.7,10-22.5-4.5c27.4-3.2,53.8,5,80.5,8.2c37.3,4.5,74.7,9.7,112,14.8
		c8,1.1,16.4,1.3,24.8,6.3c-0.3,26.6-8.9,52.8-8.4,80.2c23.2,7.1,46,7.1,68.1,11.3c36.1,6.9,55.1,31.9,50.4,67.6
		c-3.4,25.4-6.6,50.9-10.5,76.1c-5.6,36.7-29,55.7-66.2,52.5c-22.4-1.9-44.6-5.8-67.8-8.9
		C1425.5,1072.9,1426.8,1095.2,1415.2,1113.1z"/>
	<path class="st9" d="M459.6,759.8c-1.1-12.2,5.2-21.1,15.9-23.5c10.5-2.4,13.4-8.7,14.8-16.9c1.3-7.7-2.7-13-9.8-15.8
		c-13.8-5.3-14.2-15-10.1-27.4c3.4-10.5,5.2-21.6,12.7-33.6c-58.9-8.4-115.3-12.7-171.8-22.9c-4.2,18.2,2.4,37.7-10.6,52.6
		c-0.3-19.6,3.9-38.5,7.4-59.4c29.3,3.7,57.5,7.2,85.6,10.9c51.4,6.9,102.9,13.5,153.9,21.7c18.7,3.1,36.9,10,56.3,8.7
		c11.4,4.8,21.9,12.4,34.4,13.2c11.8,0.8,16.1,6.9,15.3,17.5c-1.6,22.1,5.5,45.1-8.4,65.7c-1.8,2.7-1,7.4,2.9,10.3
		c13.8,1,6.4-18.2,20.6-19.3c8.7,3.9,10.8,10.3,1.9,19.2c-11.6,11.8-17.5,23.8-5.8,39.1c4.3,5.8,2.6,12.9,1,19.3
		c-17.7,5.5-7.7-36.2-31.4-14.8c-11.1-34.6-22.7-65.5-63.9-67.8c-3.1,2.4-6.8,3.4-10.6,2.7c-31.7-5.8-60.9-0.5-87.6,18
		C468.8,759.8,464.3,760.7,459.6,759.8z"/>
	<path class="st10" d="M1251.5,745c6.3,7.9,15.1,2.9,22.5,4.5c1.4,5.6,2.9,11.3,4.2,16.4c-2.3,9.2-15.6,3.9-15.9,17.2
		c-0.3-1.9-0.3-0.5,0.2,0.8c3.5,7.4,15.9,11.8,9.7,22.5c-6.8,11.8-19.5,15.1-31.6,16.1c-7.1,0.6-14.6-0.6-22.1-0.2
		c-6.8,6.3-15.5,5-23.5,5.3c-52.3,2.3-88.2,37.5-91.4,89.7c-0.5,8.9,1.3,18.2-5.3,25.9l-1.1,0.8c-9.3-25-4.8-49.4,3.9-73.4
		c1-2.7,5-6.4,4.3-7.4c-10.3-15.5-2.7-32.7-1.9-49.6c-14.2,0.8-13.8,17.7-26.1,15c-4.2-5.3-2.4-11.3,2.4-13.4
		c14.5-6.1,13.4-18,13.2-30.3c-0.3-12.7,0-25.4,0-38.3c-0.2-21.1-0.3-21.2-22.4-25c-3.9-0.6-7.2-1.3-9.2-5.2
		c52.5,3.4,104.2,13,156,20.4C1228.5,739,1239.6,744.6,1251.5,745z"/>
	<path class="st13" d="M1165.5,74.6c23,10.8,37.7,39.3,34.3,66.3c-3.2,25.3-15.8,44.1-36.4,59.2c-27.8,20.6-56.3,29.1-89.2,12.9
		c-11.3-5.5-25.1-3.9-35.7-11.8c27.5-13.2,44.1-39.1,66.8-58C1129.5,123.7,1151,102.5,1165.5,74.6z"/>
	<path class="st14" d="M1165.5,74.6c-1.6,28-21.9,43.9-40.7,59.6c-12.7,10.6-26.6,20.6-36.1,33.6c-13,18.2-29,29.5-50.4,33.6
		c-22.7-1.4-43.6-9.7-64.6-17.7c24.6-3.5,39.3-21.9,55.5-37.8c25-24.3,48.9-49.7,72.8-74.2c4.5,2.3,2.1-1,1.3-0.6
		c-5.2,1.3-8.7-0.3-6.6-6.8C1124.2,52.7,1146.4,56.1,1165.5,74.6z"/>
	<path class="st15" d="M1097.1,64.3c3.4,9.5,10.3,0.5,16.7,3.7c-38.6,37.8-73.4,78.7-114.8,113c-8.7,7.2-17.2-1.4-25.1,2.7
		c-11.3-0.5-22.1-2.7-31.7-9c21.7-28.2,51.7-48.8,73.4-76.9c5.6-7.4,13.7-11.4,23.3-10.6c9.8,3.4,16.6-3.5,24.5-6.9
		C1075.1,75.1,1084.1,65.3,1097.1,64.3z"/>
	<path class="st16" d="M897.5,142.7c-4.5-3.5-6.9-8.4-7.9-14c32.8-30.6,78.7-48.3,94.5-95.9c1.4-4.2,4.8-7.6,9.7-8.7
		c16.9,4.3,18.8,20.9,26.7,32.5c2.3,7.6-1.6,13.8-6.4,18c-29.9,24.8-54.1,55.7-83.9,80.5c-4.5,3.7-8.9,8.2-15.6,7.4
		C904.7,159.3,904.9,147.7,897.5,142.7z"/>
	<path class="st17" d="M897.5,142.7c9.8,1.1,9,13.4,19.5,16.9c36.1-31.9,70-67.1,103.7-102.9c11.1,7.1,13.7,19.5,18.8,30.4
		c-10.9,7.2-21.1,14.6-28.8,26.2c-14.2,20.8-39.8,31.2-51.8,54.6c-2.4,4.7-10,6.1-16.1,6.8C920,174.3,902.8,166.9,897.5,142.7z"/>
	<path class="st18" d="M879.6,69.2c11.1-45.1,51.4-67.8,95.8-53.9c-0.6,16.9-11.6,29.6-22.4,39.4C930.7,75,905.2,92,891.5,123.2
		C877.2,105.4,875.9,87.8,879.6,69.2z"/>
	<path class="st19" d="M879.6,69.2c0.2,16.4,1.9,32.4,10.9,51.8c4.3-34.8,30.7-46.8,50.9-62.6c15.5-12.2,19.3-31.6,34-43
		c7.6,0,13.7,2.7,18.4,8.9c-8.9,13-11.4,29-20.8,42.2c-13.8,19.6-35.9,28.2-52.3,44.1c-4.2,4.2-10.5,6.9-12.4,12.7
		c-3.9,11.1-11.6,6.3-18.5,5.6C875.9,110.5,871.4,90.9,879.6,69.2z"/>
	<path class="st20" d="M172,872c29.9,4.8,59.7,11.1,90.1,13.7c7.1,0.6,10.5,5.5,10.8,12.2c0.3,6.8,0.8,13.5,0.2,20.3
		c-2.7,27.7,4.8,54.9,4.2,82.6c-14.2-34.1-9.8-70.2-9.7-107.5c-20-2.7-39.1-5.3-58.3-8C196.1,883.1,182.4,882.1,172,872z"/>
	<path class="st21" d="M459.6,759.8c32.7-28.5,69.5-36.4,110.9-23.3c38.5,21.4,62.1,52.2,60.2,98c-1.4,32.4-18.4,56.7-42.3,76.8
		c-32.8,17.7-66.2,22.2-101.1,5.3C463,904.6,449,884,436.9,861.2C427.8,823.7,435.2,789.9,459.6,759.8z"/>
	<path class="st9" d="M465.4,705.5c7.1,4.7,11.9,9.2,15.5,16.4c-6.1,6.8-13,10.9-23.7,7.7C451.1,719.5,455.8,712.3,465.4,705.5z"/>
	<path class="st21" d="M1098.4,943.3c-5.8-45.2,6.4-82.7,46.7-108.2c22.7-14.5,48-15,73.6-12.7c21.6,8.9,41.9,19,56.5,38.6
		c33.5,45.1,22.9,109-23.7,140.4c-5,3.4-9.8,6.6-14.8,9.8c-29.6,8.5-58.8,10.8-87.3-4.5C1123.2,992.7,1108.4,970,1098.4,943.3z"/>
	<path class="st4" d="M1458.7,793.6c4,14.6-2.1,27-6.3,41.7C1447.1,823.7,1447.1,823.7,1458.7,793.6z"/>
</g>
</svg>
